<?xml version="1.0" encoding="UTF-8"?>
<svg version="1.1" xmlns="http://www.w3.org/2000/svg" width="56" height="65">
<path d="M0 0 C0.61875 0.391875 1.2375 0.78375 1.875 1.1875 C3.87532373 2.18766187 5.70625748 2.68146008 7.875 3.1875 C6.75621617 4.36012904 5.62976949 5.52545138 4.5 6.6875 C3.87351562 7.3371875 3.24703125 7.986875 2.6015625 8.65625 C0.875 10.1875 0.875 10.1875 -1.125 10.1875 C-0.98424795 13.12532469 -0.8376162 16.06265171 -0.6875 19 C-0.64818359 19.83337891 -0.60886719 20.66675781 -0.56835938 21.52539062 C-0.52646484 22.32783203 -0.48457031 23.13027344 -0.44140625 23.95703125 C-0.40474854 24.69542236 -0.36809082 25.43381348 -0.33032227 26.19458008 C-0.17657859 28.394995 -0.17657859 28.394995 0.875 31.1875 C2.83418968 31.12758594 4.79251529 31.03882862 6.75 30.9375 C7.84054688 30.89109375 8.93109375 30.8446875 10.0546875 30.796875 C13.0082065 30.49903872 13.0082065 30.49903872 14.2578125 28.140625 C14.46148437 27.49609375 14.66515625 26.8515625 14.875 26.1875 C13.885 24.8675 12.895 23.5475 11.875 22.1875 C15.175 22.1875 18.475 22.1875 21.875 22.1875 C20.885 23.5075 19.895 24.8275 18.875 26.1875 C18.62375174 28.85511764 18.62375174 28.85511764 18.875 31.1875 C19.205 31.1875 19.535 31.1875 19.875 31.1875 C20.36730769 37.5875 20.36730769 37.5875 17.875 40.625 C17.215 41.140625 16.555 41.65625 15.875 42.1875 C13.875 41.1875 11.875 40.1875 9.875 39.1875 C10.535 40.5075 11.195 41.8275 11.875 43.1875 C10.7322081 44.35714602 9.58568285 45.52314556 8.4375 46.6875 C7.79941406 47.3371875 7.16132812 47.986875 6.50390625 48.65625 C4.875 50.1875 4.875 50.1875 3.875 50.1875 C3.545 47.2175 3.215 44.2475 2.875 41.1875 C2.84921875 41.94675781 2.8234375 42.70601562 2.796875 43.48828125 C2.74015625 44.48214844 2.6834375 45.47601563 2.625 46.5 C2.55539063 47.97919922 2.55539063 47.97919922 2.484375 49.48828125 C1.875 52.1875 1.875 52.1875 -0.171875 54.04296875 C-0.81640625 54.42066406 -1.4609375 54.79835937 -2.125 55.1875 C-2.125 54.5275 -2.125 53.8675 -2.125 53.1875 C-2.785 53.1875 -3.445 53.1875 -4.125 53.1875 C-5.50349103 51.90090837 -6.83029025 50.55836915 -8.125 49.1875 C-8.8675 48.56875 -9.61 47.95 -10.375 47.3125 C-12.125 45.1875 -12.125 45.1875 -12.5625 42.125 C-12.07312505 38.83919679 -11.52109754 38.29606584 -9.125 36.1875 C-8.41052357 34.08417109 -8.41052357 34.08417109 -8.125 32.1875 C-8.785 32.1875 -9.445 32.1875 -10.125 32.1875 C-10.125 32.8475 -10.125 33.5075 -10.125 34.1875 C-11.115 34.8475 -12.105 35.5075 -13.125 36.1875 C-13.70493699 38.38204681 -13.70493699 38.38204681 -13.8125 40.8125 C-13.91111328 42.03839844 -13.91111328 42.03839844 -14.01171875 43.2890625 C-14.04910156 43.91554687 -14.08648437 44.54203125 -14.125 45.1875 C-17.125 43.1875 -17.125 43.1875 -17.76953125 41.375 C-18.10258559 37.03754818 -17.66865248 34.89375845 -14.95703125 31.37109375 C-12.43773129 28.81544025 -9.94778344 26.40407913 -7.125 24.1875 C-6.465 24.1875 -5.805 24.1875 -5.125 24.1875 C-5.125 22.8675 -5.125 21.5475 -5.125 20.1875 C-5.96804687 21.05375 -6.81109375 21.92 -7.6796875 22.8125 C-8.78619357 23.93776041 -9.89297888 25.06274628 -11 26.1875 C-11.55558594 26.75984375 -12.11117188 27.3321875 -12.68359375 27.921875 C-14.12634404 29.38200782 -15.6224374 30.78899298 -17.125 32.1875 C-17.785 32.1875 -18.445 32.1875 -19.125 32.1875 C-19.125 34.8275 -19.125 37.4675 -19.125 40.1875 C-20.115 39.5275 -21.105 38.8675 -22.125 38.1875 C-22.625 34.875 -22.625 34.875 -22.125 31.1875 C-19.984375 28.82421875 -19.984375 28.82421875 -17.125 26.1875 C-15.0291114 24.24213553 -12.94970213 22.28041599 -10.875 20.3125 C-10.33359375 19.82136719 -9.7921875 19.33023437 -9.234375 18.82421875 C-5.47496742 15.20578895 -4.25812047 12.60550324 -4.125 7.1875 C-5.19145115 5.89116379 -5.19145115 5.89116379 -7.6875 6.125 C-8.491875 6.145625 -9.29625 6.16625 -10.125 6.1875 C-10.125 6.5175 -10.125 6.8475 -10.125 7.1875 C-8.475 7.1875 -6.825 7.1875 -5.125 7.1875 C-4.8125 9.4375 -4.8125 9.4375 -5.125 12.1875 C-7.625 14.5 -7.625 14.5 -10.125 16.1875 C-11.29762904 15.06871617 -12.46295138 13.94226949 -13.625 12.8125 C-14.59953125 11.87277344 -14.59953125 11.87277344 -15.59375 10.9140625 C-17.125 9.1875 -17.125 9.1875 -17.125 7.1875 C-16.135 7.1875 -15.145 7.1875 -14.125 7.1875 C-13.795 5.8675 -13.465 4.5475 -13.125 3.1875 C-11.51625 2.754375 -11.51625 2.754375 -9.875 2.3125 C-6.28934516 1.39058012 -6.28934516 1.39058012 -3.9375 -0.0625 C-2.125 -0.8125 -2.125 -0.8125 0 0 Z M7.875 33.1875 C8.865 34.6725 8.865 34.6725 9.875 36.1875 C11.525 35.8575 13.175 35.5275 14.875 35.1875 C15.205 33.8675 15.535 32.5475 15.875 31.1875 C13.23923317 31.1875 10.38986589 32.45590265 7.875 33.1875 Z M5.875 35.1875 C5.875 35.8475 5.875 36.5075 5.875 37.1875 C6.535 36.8575 7.195 36.5275 7.875 36.1875 C7.215 35.8575 6.555 35.5275 5.875 35.1875 Z " fill="#FDFDFD" transform="translate(30.125,5.8125)"/>
<path d="M0 0 C1.17539996 0.92652701 2.34010577 1.86663387 3.5 2.8125 C4.1496875 3.33457031 4.799375 3.85664063 5.46875 4.39453125 C7 6 7 6 7 9 C5.21422954 11.00319381 3.43695695 12.84334566 1.5 14.6875 C0.97535156 15.19861328 0.45070313 15.70972656 -0.08984375 16.23632812 C-1.38660904 17.49772708 -2.69246117 18.74977212 -4 20 C-4.99 19.01 -5.98 18.02 -7 17 C-3.7 13.7 -0.4 10.4 3 7 C0.91824988 6.78114478 0.91824988 6.78114478 -0.5078125 8.3125 C-1.04148437 8.869375 -1.57515625 9.42625 -2.125 10 C-2.66382813 10.556875 -3.20265625 11.11375 -3.7578125 11.6875 C-4.37269531 12.3371875 -4.37269531 12.3371875 -5 13 C-5.66 12.67 -6.32 12.34 -7 12 C-4 7.5 -4 7.5 -1 3 C-0.67 2.01 -0.34 1.02 0 0 Z " fill="#FCFCFC" transform="translate(11,16)"/>
<path d="M0 0 C1.32 0.66 2.64 1.32 4 2 C4 2.99 4 3.98 4 5 C5.2065625 5.309375 5.2065625 5.309375 6.4375 5.625 C7.283125 6.07875 8.12875 6.5325 9 7 C9.8125 10.125 9.8125 10.125 10 13 C8.296875 13.76953125 8.296875 13.76953125 6 14 C3.640625 12.19921875 3.640625 12.19921875 1.25 9.6875 C0.45078125 8.86636719 -0.3484375 8.04523437 -1.171875 7.19921875 C-3 5 -3 5 -3 3 C-1.5 1.375 -1.5 1.375 0 0 Z " fill="#FDFDFD" transform="translate(42,13)"/>
<path d="M0 0 C2.31 0.33 4.62 0.66 7 1 C7.66 2.98 8.32 4.96 9 7 C6.03 5.35 3.06 3.7 0 2 C0 1.34 0 0.68 0 0 Z " fill="#FDFDFD" transform="translate(31,19)"/>
<path d="M0 0 C0.99 0.33 1.98 0.66 3 1 C1.68 2.65 0.36 4.3 -1 6 C-2.32 5.67 -3.64 5.34 -5 5 C-3.35 3.35 -1.7 1.7 0 0 Z " fill="#FCFCFC" transform="translate(39,10)"/>
<path d="M0 0 C2.64 0 5.28 0 8 0 C8 0.66 8 1.32 8 2 C5.36 2 2.72 2 0 2 C0 1.34 0 0.68 0 0 Z " fill="#F9F8F9" transform="translate(35,31)"/>
<path d="M0 0 C2.64 0 5.28 0 8 0 C8 0.33 8 0.66 8 1 C5.36 1 2.72 1 0 1 C0 0.67 0 0.34 0 0 Z " fill="#FCFCFC" transform="translate(35,34)"/>
</svg>
