<?xml version="1.0" encoding="UTF-8"?>
<svg version="1.1" xmlns="http://www.w3.org/2000/svg" width="148" height="148">
<path d="M0 0 C2.8125 0.1875 2.8125 0.1875 5 1 C5.495 2.485 5.495 2.485 6 4 C6.99 4.33 7.98 4.66 9 5 C9 5.66 9 6.32 9 7 C12.96 7 16.92 7 21 7 C21 7.99 21 8.98 21 10 C21.763125 9.938125 22.52625 9.87625 23.3125 9.8125 C26 10 26 10 27.8125 11.3125 C29 13 29 13 29 16 C29.59296875 16.10183594 30.1859375 16.20367187 30.796875 16.30859375 C33.36184111 17.11355652 34.42743483 18.11566902 36.25 20.0625 C37.03117187 20.88427734 37.03117187 20.88427734 37.828125 21.72265625 C38.21484375 22.14417969 38.6015625 22.56570312 39 23 C37.125 26.875 37.125 26.875 36 28 C36.61488281 28.12117188 37.22976562 28.24234375 37.86328125 28.3671875 C38.67152344 28.53476562 39.47976562 28.70234375 40.3125 28.875 C41.11300781 29.03742187 41.91351563 29.19984375 42.73828125 29.3671875 C45 30 45 30 48 32 C47.773125 32.7425 47.54625 33.485 47.3125 34.25 C46.68503789 37.05388789 46.68503789 37.05388789 48.5 39.125 C48.995 39.74375 49.49 40.3625 50 41 C49.67 41.99 49.34 42.98 49 44 C47.35 44 45.7 44 44 44 C44 44.66 44 45.32 44 46 C45.65 46.66 47.3 47.32 49 48 C48.65652573 51.20575987 48.0292146 51.97516759 45.5 54.125 C44.2625 55.053125 44.2625 55.053125 43 56 C41.5216774 58.95664519 41.93967217 61.74229737 42 65 C42.99 65 43.98 65 45 65 C46.37210615 77.85714286 46.37210615 77.85714286 43.1015625 82.96484375 C39.9137431 86.14750487 37.30445117 88.56518294 33 90 C31.515 89.01 31.515 89.01 30 88 C29.505 89.485 29.505 89.485 29 91 C28.34 91 27.68 91 27 91 C26.505 92.485 26.505 92.485 26 94 C25.34 94 24.68 94 24 94 C23.505 95.485 23.505 95.485 23 97 C22.34 97 21.68 97 21 97 C20.505 98.485 20.505 98.485 20 100 C19.34 100 18.68 100 18 100 C17.505 101.485 17.505 101.485 17 103 C16.34 103 15.68 103 15 103 C15 103.66 15 104.32 15 105 C13.68 104.67 12.36 104.34 11 104 C10.67386719 104.55429688 10.34773438 105.10859375 10.01171875 105.6796875 C9.57472656 106.40414062 9.13773438 107.12859375 8.6875 107.875 C8.25824219 108.59429687 7.82898438 109.31359375 7.38671875 110.0546875 C6 112 6 112 3 114 C2.01 114 1.02 114 0 114 C0 113.34 0 112.68 0 112 C-0.99 111.67 -1.98 111.34 -3 111 C-3 110.34 -3 109.68 -3 109 C-3.99 108.67 -4.98 108.34 -6 108 C-6 107.34 -6 106.68 -6 106 C-6.99 105.67 -7.98 105.34 -9 105 C-9 104.34 -9 103.68 -9 103 C-9.70125 102.979375 -10.4025 102.95875 -11.125 102.9375 C-14.69974344 101.77182279 -16.47700676 100.41882402 -18.81640625 97.49609375 C-21.41969414 92.00599157 -21.02837416 85.8670064 -20 80 C-18.27248379 77.24987362 -16.61928992 76.01903598 -14 74 C-14 72.68 -14 71.36 -14 70 C-17.08000475 71.9219873 -19.11479146 73.8821551 -21 77 C-22.19414125 82.55818471 -22.0445571 88.3412482 -22 94 C-23.6875 94.8125 -23.6875 94.8125 -26 95 C-28.84459683 93.03538636 -30.67050956 91.44487661 -31.46142578 87.9765625 C-31.63784654 85.63114371 -31.63309649 83.35067224 -31.5625 81 C-31.57345703 80.2059375 -31.58441406 79.411875 -31.59570312 78.59375 C-31.5467496 74.6774683 -31.32599777 72.51692922 -29.19921875 69.14453125 C-27.25883722 67.25240077 -25.33232572 65.42133733 -23.25 63.6875 C-19.49314676 60.49347122 -16.06387124 57.07302817 -12.6640625 53.50390625 C-11 52 -11 52 -9 52 C-8.67 51.01 -8.34 50.02 -8 49 C-7.34 49 -6.68 49 -6 49 C-6 47.68 -6 46.36 -6 45 C-6.99 45.33 -7.98 45.66 -9 46 C-9.33 46.99 -9.66 47.98 -10 49 C-10.66 49 -11.32 49 -12 49 C-12.33 49.99 -12.66 50.98 -13 52 C-13.66 52 -14.32 52 -15 52 C-15.33 52.99 -15.66 53.98 -16 55 C-16.66 55 -17.32 55 -18 55 C-18.33 55.99 -18.66 56.98 -19 58 C-19.66 58 -20.32 58 -21 58 C-21.33 58.99 -21.66 59.98 -22 61 C-22.66 61 -23.32 61 -24 61 C-24.33 61.99 -24.66 62.98 -25 64 C-25.66 64 -26.32 64 -27 64 C-27.33 64.99 -27.66 65.98 -28 67 C-28.66 67 -29.32 67 -30 67 C-30 67.66 -30 68.32 -30 69 C-30.99 69.495 -30.99 69.495 -32 70 C-32.47001033 73.27555608 -32.47001033 73.27555608 -32.625 77.0625 C-32.69976562 78.35285156 -32.77453125 79.64320312 -32.8515625 80.97265625 C-32.90054688 81.97167969 -32.94953125 82.97070312 -33 84 C-36 84 -36 84 -38.625 81.5625 C-39.40875 80.716875 -40.1925 79.87125 -41 79 C-41.33 78.67 -41.66 78.34 -42 78 C-42.34375 75.77734375 -42.34375 75.77734375 -42.5 72.9375 C-42.5721875 72.01839844 -42.644375 71.09929687 -42.71875 70.15234375 C-41.60203851 65.2545928 -38.45513349 62.52046663 -35 59 C-34.26475098 58.23921143 -33.52950195 57.47842285 -32.77197266 56.69458008 C-30.38884263 54.25478019 -27.97987147 51.84335103 -25.5625 49.4375 C-24.75490234 48.62603516 -23.94730469 47.81457031 -23.11523438 46.97851562 C-18.76029589 42.63059557 -14.33314508 38.43398034 -9.65795898 34.43139648 C-5.39637099 30.83462731 -5.39637099 30.83462731 -3.765625 25.69140625 C-3.7516034 23.44444441 -3.82435704 21.23944771 -4 19 C-4.33 19 -4.66 19 -5 19 C-4.67 19.33 -4.34 19.66 -4 20 C-3.53403933 26.17397882 -3.53403933 26.17397882 -5.375 29.4375 C-7 31 -7 31 -9 31 C-9.33 31.99 -9.66 32.98 -10 34 C-10.66 34 -11.32 34 -12 34 C-12 34.66 -12 35.32 -12 36 C-13.485 36.495 -13.485 36.495 -15 37 C-17.6539649 34.40401115 -20.29670704 31.79688166 -22.9375 29.1875 C-23.69224609 28.44951172 -24.44699219 27.71152344 -25.22460938 26.95117188 C-25.94326172 26.23896484 -26.66191406 25.52675781 -27.40234375 24.79296875 C-28.06741943 24.1383667 -28.73249512 23.48376465 -29.41772461 22.80932617 C-31 21 -31 21 -32 18 C-29 16 -29 16 -25 16 C-24.34 14.02 -23.68 12.04 -23 10 C-22.34 10 -21.68 10 -21 10 C-21 9.34 -21 8.68 -21 8 C-17.10763555 5.54166456 -14.43661103 4.86944511 -9.9375 5.125 C-5.61917822 5.32190332 -5.61917822 5.32190332 -2.1875 2.4375 C-1.465625 1.633125 -0.74375 0.82875 0 0 Z M20 10 C19.01 11.485 19.01 11.485 18 13 C18.99 12.67 19.98 12.34 21 12 C20.67 11.34 20.34 10.68 20 10 Z M17 13 C16.01 14.485 16.01 14.485 15 16 C15.99 15.67 16.98 15.34 18 15 C17.67 14.34 17.34 13.68 17 13 Z M-15 16 C-12.36 16 -9.72 16 -7 16 C-7.33 15.34 -7.66 14.68 -8 14 C-11.95457848 13.65176193 -11.95457848 13.65176193 -15 16 Z M-16 16 C-16.33 17.32 -16.66 18.64 -17 20 C-16.34 18.68 -15.68 17.36 -15 16 C-15.33 16 -15.66 16 -16 16 Z M14 16 C13.01 17.485 13.01 17.485 12 19 C12.99 18.67 13.98 18.34 15 18 C14.67 17.34 14.34 16.68 14 16 Z M11 19 C10.01 20.485 10.01 20.485 9 22 C9.99 21.67 10.98 21.34 12 21 C11.67 20.34 11.34 19.68 11 19 Z M8 22 C4.92326418 24.38582911 4.06514248 25.58543324 3.45068359 29.49584961 C3.41093382 30.88088682 3.39486699 32.26674085 3.3984375 33.65234375 C3.38986725 34.38949112 3.381297 35.12663849 3.37246704 35.88612366 C3.36100531 37.441863 3.35996186 38.9977095 3.36865234 40.5534668 C3.37497334 42.92748791 3.32805647 45.29651744 3.27734375 47.66992188 C3.27279703 49.18488957 3.27139112 50.69987061 3.2734375 52.21484375 C3.25501801 52.9201976 3.23659851 53.62555145 3.21762085 54.35227966 C3.26931501 57.12180385 3.49456748 59.3455797 5.21786499 61.57685852 C8.2375156 64.29681905 10.6954775 65.62686721 14.7421875 65.48828125 C15.58007812 65.47216797 16.41796875 65.45605469 17.28125 65.43945312 C18.1371875 65.39755859 18.993125 65.35566406 19.875 65.3125 C20.75414063 65.28994141 21.63328125 65.26738281 22.5390625 65.24414062 C24.69345007 65.18559748 26.8469531 65.09592783 29 65 C29 64.67 29 64.34 29 64 C24.05 63.67 19.1 63.34 14 63 C12.96649932 58.86599728 12.66704523 56.9988643 14 53 C18.62 52.67 23.24 52.34 28 52 C27.505 49.525 27.505 49.525 27 47 C31.62 47 36.24 47 41 47 C40.34 46.67 39.68 46.34 39 46 C38.505 44.515 38.505 44.515 38 43 C37.34 43 36.68 43 36 43 C35.67 42.01 35.34 41.02 35 40 C34.34 40 33.68 40 33 40 C32.67 39.01 32.34 38.02 32 37 C31.34 37 30.68 37 30 37 C29.67 36.01 29.34 35.02 29 34 C28.34 34 27.68 34 27 34 C26.67 33.01 26.34 32.02 26 31 C25.34 31 24.68 31 24 31 C23.67 30.01 23.34 29.02 23 28 C22.34 28 21.68 28 21 28 C21 27.01 21 26.02 21 25 C17.04 25 13.08 25 9 25 C8.67 24.01 8.34 23.02 8 22 Z M31 55 C31 57.31 31 59.62 31 62 C32.32 60.68 33.64 59.36 35 58 C34.34 57.01 33.68 56.02 33 55 C32.34 55 31.68 55 31 55 Z M34 68 C33.46375 68.474375 32.9275 68.94875 32.375 69.4375 C29.57157164 71.28186076 27.30379742 71.62456847 24 72 C24 72.33 24 72.66 24 73 C29.36090593 73.53673893 29.36090593 73.53673893 34 71.5 C34.33 71.005 34.66 70.51 35 70 C34.67 69.34 34.34 68.68 34 68 Z " fill="#F8F8F8" transform="translate(73,18)"/>
<path d="M0 0 C2.8125 0.1875 2.8125 0.1875 5 1 C5.495 2.485 5.495 2.485 6 4 C6.99 4.33 7.98 4.66 9 5 C9 5.66 9 6.32 9 7 C12.96 7 16.92 7 21 7 C21 7.99 21 8.98 21 10 C21.763125 9.938125 22.52625 9.87625 23.3125 9.8125 C26 10 26 10 27.8125 11.3125 C29 13 29 13 29 16 C29.59296875 16.10183594 30.1859375 16.20367187 30.796875 16.30859375 C33.36184111 17.11355652 34.42743483 18.11566902 36.25 20.0625 C37.03117187 20.88427734 37.03117187 20.88427734 37.828125 21.72265625 C38.21484375 22.14417969 38.6015625 22.56570312 39 23 C37.125 26.875 37.125 26.875 36 28 C36.61488281 28.12117188 37.22976562 28.24234375 37.86328125 28.3671875 C38.67152344 28.53476562 39.47976562 28.70234375 40.3125 28.875 C41.11300781 29.03742187 41.91351563 29.19984375 42.73828125 29.3671875 C45 30 45 30 48 32 C47.773125 32.7425 47.54625 33.485 47.3125 34.25 C46.68503789 37.05388789 46.68503789 37.05388789 48.5 39.125 C48.995 39.74375 49.49 40.3625 50 41 C49.67 41.99 49.34 42.98 49 44 C47.35 44 45.7 44 44 44 C44 44.66 44 45.32 44 46 C45.65 46.66 47.3 47.32 49 48 C48.65652573 51.20575987 48.0292146 51.97516759 45.5 54.125 C44.2625 55.053125 44.2625 55.053125 43 56 C41.5216774 58.95664519 41.93967217 61.74229737 42 65 C42.99 65 43.98 65 45 65 C46.37210615 77.85714286 46.37210615 77.85714286 43.1015625 82.96484375 C39.9137431 86.14750487 37.30445117 88.56518294 33 90 C31.515 89.01 31.515 89.01 30 88 C29.505 89.485 29.505 89.485 29 91 C28.34 91 27.68 91 27 91 C26.505 92.485 26.505 92.485 26 94 C25.34 94 24.68 94 24 94 C23.505 95.485 23.505 95.485 23 97 C22.34 97 21.68 97 21 97 C20.505 98.485 20.505 98.485 20 100 C19.34 100 18.68 100 18 100 C17.505 101.485 17.505 101.485 17 103 C16.34 103 15.68 103 15 103 C15 103.66 15 104.32 15 105 C13.68 104.67 12.36 104.34 11 104 C10.67386719 104.55429688 10.34773438 105.10859375 10.01171875 105.6796875 C9.57472656 106.40414062 9.13773438 107.12859375 8.6875 107.875 C8.25824219 108.59429687 7.82898438 109.31359375 7.38671875 110.0546875 C6 112 6 112 3 114 C2.01 114 1.02 114 0 114 C0 113.34 0 112.68 0 112 C-0.99 111.67 -1.98 111.34 -3 111 C-3 110.34 -3 109.68 -3 109 C-3.99 108.67 -4.98 108.34 -6 108 C-6 107.34 -6 106.68 -6 106 C-6.99 105.67 -7.98 105.34 -9 105 C-9 104.34 -9 103.68 -9 103 C-9.70125 102.979375 -10.4025 102.95875 -11.125 102.9375 C-14.69974344 101.77182279 -16.47700676 100.41882402 -18.81640625 97.49609375 C-21.41969414 92.00599157 -21.02837416 85.8670064 -20 80 C-18.27248379 77.24987362 -16.61928992 76.01903598 -14 74 C-14 72.68 -14 71.36 -14 70 C-17.08000475 71.9219873 -19.11479146 73.8821551 -21 77 C-22.19414125 82.55818471 -22.0445571 88.3412482 -22 94 C-23.6875 94.8125 -23.6875 94.8125 -26 95 C-28.84459683 93.03538636 -30.67050956 91.44487661 -31.46142578 87.9765625 C-31.63784654 85.63114371 -31.63309649 83.35067224 -31.5625 81 C-31.57345703 80.2059375 -31.58441406 79.411875 -31.59570312 78.59375 C-31.5467496 74.6774683 -31.32599777 72.51692922 -29.19921875 69.14453125 C-27.25883722 67.25240077 -25.33232572 65.42133733 -23.25 63.6875 C-19.49314676 60.49347122 -16.06387124 57.07302817 -12.6640625 53.50390625 C-11 52 -11 52 -9 52 C-8.67 51.01 -8.34 50.02 -8 49 C-7.34 49 -6.68 49 -6 49 C-6 47.68 -6 46.36 -6 45 C-6.99 45.33 -7.98 45.66 -9 46 C-9.33 46.99 -9.66 47.98 -10 49 C-10.66 49 -11.32 49 -12 49 C-12.33 49.99 -12.66 50.98 -13 52 C-13.66 52 -14.32 52 -15 52 C-15.33 52.99 -15.66 53.98 -16 55 C-16.66 55 -17.32 55 -18 55 C-18.33 55.99 -18.66 56.98 -19 58 C-19.66 58 -20.32 58 -21 58 C-21.33 58.99 -21.66 59.98 -22 61 C-22.66 61 -23.32 61 -24 61 C-24.33 61.99 -24.66 62.98 -25 64 C-25.66 64 -26.32 64 -27 64 C-27.33 64.99 -27.66 65.98 -28 67 C-28.66 67 -29.32 67 -30 67 C-30 67.66 -30 68.32 -30 69 C-30.99 69.495 -30.99 69.495 -32 70 C-32.47001033 73.27555608 -32.47001033 73.27555608 -32.625 77.0625 C-32.69976562 78.35285156 -32.77453125 79.64320312 -32.8515625 80.97265625 C-32.90054688 81.97167969 -32.94953125 82.97070312 -33 84 C-36 84 -36 84 -38.625 81.5625 C-39.40875 80.716875 -40.1925 79.87125 -41 79 C-41.33 78.67 -41.66 78.34 -42 78 C-42.34375 75.77734375 -42.34375 75.77734375 -42.5 72.9375 C-42.5721875 72.01839844 -42.644375 71.09929687 -42.71875 70.15234375 C-41.60203851 65.2545928 -38.45513349 62.52046663 -35 59 C-34.26475098 58.23921143 -33.52950195 57.47842285 -32.77197266 56.69458008 C-30.38884263 54.25478019 -27.97987147 51.84335103 -25.5625 49.4375 C-24.75490234 48.62603516 -23.94730469 47.81457031 -23.11523438 46.97851562 C-18.76029589 42.63059557 -14.33314508 38.43398034 -9.65795898 34.43139648 C-5.39637099 30.83462731 -5.39637099 30.83462731 -3.765625 25.69140625 C-3.7516034 23.44444441 -3.82435704 21.23944771 -4 19 C-4.33 19 -4.66 19 -5 19 C-4.67 19.33 -4.34 19.66 -4 20 C-3.53403933 26.17397882 -3.53403933 26.17397882 -5.375 29.4375 C-7 31 -7 31 -9 31 C-9.33 31.99 -9.66 32.98 -10 34 C-10.66 34 -11.32 34 -12 34 C-12 34.66 -12 35.32 -12 36 C-13.485 36.495 -13.485 36.495 -15 37 C-17.6539649 34.40401115 -20.29670704 31.79688166 -22.9375 29.1875 C-23.69224609 28.44951172 -24.44699219 27.71152344 -25.22460938 26.95117188 C-25.94326172 26.23896484 -26.66191406 25.52675781 -27.40234375 24.79296875 C-28.06741943 24.1383667 -28.73249512 23.48376465 -29.41772461 22.80932617 C-31 21 -31 21 -32 18 C-29 16 -29 16 -25 16 C-24.34 14.02 -23.68 12.04 -23 10 C-22.34 10 -21.68 10 -21 10 C-21 9.34 -21 8.68 -21 8 C-17.10763555 5.54166456 -14.43661103 4.86944511 -9.9375 5.125 C-5.61917822 5.32190332 -5.61917822 5.32190332 -2.1875 2.4375 C-1.465625 1.633125 -0.74375 0.82875 0 0 Z M1 1 C0.38125 1.804375 -0.2375 2.60875 -0.875 3.4375 C-4.18068033 6.88816631 -7.86443782 6.54157535 -12.41015625 6.7734375 C-17.09143988 7.18296156 -19.23908519 9.13340258 -22.25 12.5625 C-23.99369302 14.85542454 -23.99369302 14.85542454 -25 17 C-27.0625 17.625 -27.0625 17.625 -29 18 C-28.4194679 21.30118794 -27.45131901 22.91134076 -25.05859375 25.234375 C-24.47529297 25.80800781 -23.89199219 26.38164063 -23.29101562 26.97265625 C-22.67935547 27.55917969 -22.06769531 28.14570312 -21.4375 28.75 C-20.82197266 29.35199219 -20.20644531 29.95398438 -19.57226562 30.57421875 C-18.05485187 32.05634381 -16.52829404 33.5290967 -15 35 C-14.48228027 34.55897949 -13.96456055 34.11795898 -13.43115234 33.66357422 C-12.19628906 32.61165365 -10.96142578 31.55973307 -9.7265625 30.5078125 C-6.44952462 27.77782801 -6.44952462 27.77782801 -5.6875 23.5625 C-5.72957899 20.12631974 -5.72957899 20.12631974 -7.1875 18 C-9.01069312 16.80374983 -9.01069312 16.80374983 -11.4375 17 C-14.73853706 18.28820958 -16.01130379 20.12743881 -18 23 C-18.3125 20.25 -18.3125 20.25 -18 17 C-15.9375 14.5625 -15.9375 14.5625 -13 13 C-9.4375 12.875 -9.4375 12.875 -6 14 C-3.06826551 17.15725253 -2.10875196 19.23873628 -1.5 23.5 C-2.68739226 31.81174581 -10.04800218 37.3144657 -15.75 42.9375 C-16.61882813 43.80568359 -17.48765625 44.67386719 -18.3828125 45.56835938 C-23.97512726 51.12288823 -29.61788124 56.64415983 -35.88476562 61.44335938 C-38.77885223 63.67254095 -39.84619341 65.23720247 -40.578125 68.8671875 C-40.94613823 74.70585099 -40.94613823 74.70585099 -38.640625 79.88671875 C-36.861883 81.44081003 -36.861883 81.44081003 -34 83 C-34.08950928 82.16122314 -34.17901855 81.32244629 -34.27124023 80.45825195 C-34.47996045 73.07445555 -33.57009673 68.83720576 -28.65591431 63.38400269 C-25.54644447 60.21817164 -22.32756217 57.19148417 -19.0625 54.1875 C-17.73210988 52.91384639 -16.40460521 51.63717161 -15.08007812 50.35742188 C-5.67609687 41.33804843 -5.67609687 41.33804843 -3 40 C-3.08865571 45.0533754 -3.42647717 47.92647717 -7.0625 51.5625 C-8.35584017 52.72991658 -9.66897641 53.87573736 -11 55 C-12.921552 56.66264815 -14.83784428 58.32833358 -16.734375 60.01953125 C-18.43216912 61.50363749 -20.1811075 62.92957535 -21.953125 64.32421875 C-26.30383864 67.94715649 -30.01796808 71.32777133 -30.91015625 77.125 C-31.0022945 78.56044262 -31.05336233 79.99913235 -31.0625 81.4375 C-31.07087891 82.12384521 -31.07925781 82.81019043 -31.08789062 83.51733398 C-31.02578303 85.78282028 -31.02578303 85.78282028 -30 89 C-27.08681921 91.51548841 -27.08681921 91.51548841 -24 93 C-24.05542969 91.88882813 -24.11085938 90.77765625 -24.16796875 89.6328125 C-24.37045424 77.03481697 -24.37045424 77.03481697 -20.484375 72.64453125 C-17.86110601 70.1490063 -15.00723366 68.01638237 -12 66 C-11.55653274 69.1042708 -11.40672322 71.90897814 -12 75 C-13.55859375 76.734375 -13.55859375 76.734375 -15.5 78.3125 C-17.99032221 80.49280251 -18.90101762 81.6024389 -19.7109375 84.85546875 C-19.93644523 89.17770027 -19.93254806 92.5432087 -17.5546875 96.2578125 C-15.2502719 98.6420347 -13.08779792 100.49996386 -10.0625 101.890625 C-7.29558124 103.37889191 -5.43403309 105.37673065 -3.25 107.625 C-2.45078125 108.44226563 -1.6515625 109.25953125 -0.828125 110.1015625 C-0.22484375 110.72804688 0.3784375 111.35453125 1 112 C3.89641174 110.70160853 6.0249761 109.50860866 8 107 C8.50479657 104.3931977 8.50479657 104.3931977 8.51171875 101.45703125 C8.54716797 100.38388672 8.58261719 99.31074219 8.61914062 98.20507812 C8.64169922 97.08552734 8.66425781 95.96597656 8.6875 94.8125 C8.72166016 93.68134766 8.75582031 92.55019531 8.79101562 91.38476562 C8.87356314 88.5899426 8.94269182 85.79543602 9 83 C12 85 12 85 12.43237305 86.87939453 C12.47164917 87.99483643 12.47164917 87.99483643 12.51171875 89.1328125 C12.54716797 89.93847656 12.58261719 90.74414062 12.61914062 91.57421875 C12.65297852 92.83685547 12.65297852 92.83685547 12.6875 94.125 C12.72166016 94.97449219 12.75582031 95.82398437 12.79101562 96.69921875 C12.87359173 98.79901105 12.93846978 100.89948564 13 103 C18.29012124 98.59156563 23.18808428 93.92440206 28 89 C23.88380164 84.08064098 19.59589638 79.47352044 15 75 C15.33 74.34 15.66 73.68 16 73 C16.721875 73.763125 17.44375 74.52625 18.1875 75.3125 C20.76958746 77.99114208 20.76958746 77.99114208 23.375 79.375 C27.13114161 81.70023052 29.96921794 84.81200158 33 88 C34.1055189 87.06409496 35.20935453 86.12620142 36.3125 85.1875 C36.92738281 84.66542969 37.54226562 84.14335938 38.17578125 83.60546875 C38.77777344 83.07566406 39.37976563 82.54585938 40 82 C40.85078125 81.33484375 40.85078125 81.33484375 41.71875 80.65625 C43.59691356 78.22838003 43.29401174 76.33033274 43.1875 73.3125 C43.16042969 72.31863281 43.13335937 71.32476562 43.10546875 70.30078125 C43.07066406 69.54152344 43.03585938 68.78226562 43 68 C41.515 68.495 41.515 68.495 40 69 C38.92428668 58.60143788 38.92428668 58.60143788 41.55859375 54.6796875 C43.30302644 53.00194338 45.10115525 51.49679344 47 50 C47 49.67 47 49.34 47 49 C41.06 49 35.12 49 29 49 C30.010625 50.051875 31.02125 51.10375 32.0625 52.1875 C34.97247505 55.61465071 34.97247505 55.61465071 35.1875 58.625 C33.53684593 61.92630813 31.90957981 63.68667649 29 66 C25.85800756 66.7565903 22.84426131 66.74480883 19.625 66.6875 C18.8 66.71521484 17.975 66.74292969 17.125 66.77148438 C12.12026642 66.75162432 7.94665087 66.05651411 4.28222656 62.46313477 C1.09347804 56.33760472 2.01514084 48.37854637 2.0625 41.625 C2.04938373 39.91794155 2.03314022 38.21090408 2.01367188 36.50390625 C1.97292184 32.33530971 1.97494848 28.1686994 2 24 C2.60376465 23.89042969 3.2075293 23.78085937 3.82958984 23.66796875 C7.34450451 22.58621324 9.29365985 19.70535193 11.625 17 C16.78381148 11.10809426 16.78381148 11.10809426 19 10 C19 9.34 19 8.68 19 8 C17.906875 8 16.81375 8 15.6875 8 C9 8 9 8 7.2109375 6.46875 C6.60507813 5.8190625 5.99921875 5.169375 5.375 4.5 C4.26465362 3.31937854 3.14308797 2.14894996 2 1 C1.67 1 1.34 1 1 1 Z M20 10 C19.01 11.485 19.01 11.485 18 13 C18.99 12.67 19.98 12.34 21 12 C20.67 11.34 20.34 10.68 20 10 Z M17 13 C16.01 14.485 16.01 14.485 15 16 C15.99 15.67 16.98 15.34 18 15 C17.67 14.34 17.34 13.68 17 13 Z M-15 16 C-12.36 16 -9.72 16 -7 16 C-7.33 15.34 -7.66 14.68 -8 14 C-11.95457848 13.65176193 -11.95457848 13.65176193 -15 16 Z M-16 16 C-16.33 17.32 -16.66 18.64 -17 20 C-16.34 18.68 -15.68 17.36 -15 16 C-15.33 16 -15.66 16 -16 16 Z M14 16 C13.01 17.485 13.01 17.485 12 19 C12.99 18.67 13.98 18.34 15 18 C14.67 17.34 14.34 16.68 14 16 Z M11 19 C10.01 20.485 10.01 20.485 9 22 C9.99 21.67 10.98 21.34 12 21 C11.67 20.34 11.34 19.68 11 19 Z M8 22 C4.92326418 24.38582911 4.06514248 25.58543324 3.45068359 29.49584961 C3.41093382 30.88088682 3.39486699 32.26674085 3.3984375 33.65234375 C3.38986725 34.38949112 3.381297 35.12663849 3.37246704 35.88612366 C3.36100531 37.441863 3.35996186 38.9977095 3.36865234 40.5534668 C3.37497334 42.92748791 3.32805647 45.29651744 3.27734375 47.66992188 C3.27279703 49.18488957 3.27139112 50.69987061 3.2734375 52.21484375 C3.25501801 52.9201976 3.23659851 53.62555145 3.21762085 54.35227966 C3.26931501 57.12180385 3.49456748 59.3455797 5.21786499 61.57685852 C8.2375156 64.29681905 10.6954775 65.62686721 14.7421875 65.48828125 C15.58007812 65.47216797 16.41796875 65.45605469 17.28125 65.43945312 C18.1371875 65.39755859 18.993125 65.35566406 19.875 65.3125 C20.75414063 65.28994141 21.63328125 65.26738281 22.5390625 65.24414062 C24.69345007 65.18559748 26.8469531 65.09592783 29 65 C29 64.67 29 64.34 29 64 C24.05 63.67 19.1 63.34 14 63 C12.96649932 58.86599728 12.66704523 56.9988643 14 53 C18.62 52.67 23.24 52.34 28 52 C27.505 49.525 27.505 49.525 27 47 C31.62 47 36.24 47 41 47 C40.34 46.67 39.68 46.34 39 46 C38.505 44.515 38.505 44.515 38 43 C37.34 43 36.68 43 36 43 C35.67 42.01 35.34 41.02 35 40 C34.34 40 33.68 40 33 40 C32.67 39.01 32.34 38.02 32 37 C31.34 37 30.68 37 30 37 C29.67 36.01 29.34 35.02 29 34 C28.34 34 27.68 34 27 34 C26.67 33.01 26.34 32.02 26 31 C25.34 31 24.68 31 24 31 C23.67 30.01 23.34 29.02 23 28 C22.34 28 21.68 28 21 28 C21 27.01 21 26.02 21 25 C17.04 25 13.08 25 9 25 C8.67 24.01 8.34 23.02 8 22 Z M31 55 C31 57.31 31 59.62 31 62 C32.32 60.68 33.64 59.36 35 58 C34.34 57.01 33.68 56.02 33 55 C32.34 55 31.68 55 31 55 Z " fill="#151515" transform="translate(73,18)"/>
<path d="M0 0 C2.8125 0.1875 2.8125 0.1875 5 1 C5.495 2.485 5.495 2.485 6 4 C6.99 4.33 7.98 4.66 9 5 C9 5.66 9 6.32 9 7 C12.96 7 16.92 7 21 7 C19.89438779 11.42244882 19.89438779 11.42244882 16.62109375 13.4765625 C11.38053396 17.27565566 6.14687384 21.30080303 4.53814697 27.89239502 C3.71579075 33.14134902 3.67207438 38.38593002 3.75 43.6875 C3.75514618 44.45741272 3.76029236 45.22732544 3.76559448 46.02056885 C3.47740918 54.93018838 3.47740918 54.93018838 7.31347656 62.45629883 C10.061626 64.33214432 10.061626 64.33214432 14 64 C13.34 62.68 12.68 61.36 12 60 C12.66 59.67 13.32 59.34 14 59 C14 59.99 14 60.98 14 62 C19.28 62 24.56 62 30 62 C30.495 61.01 30.495 61.01 31 60 C31.66 60 32.32 60 33 60 C33.33 59.01 33.66 58.02 34 57 C34.66 57 35.32 57 36 57 C35.24103863 60.95744145 33.78060712 63.01064246 30.88574219 65.74755859 C27.35449209 68.09288654 23.74582302 67.90644958 19.625 67.8125 C18.40683594 67.85987305 18.40683594 67.85987305 17.1640625 67.90820312 C11.63874547 67.87721176 7.48825414 66.59542303 3.5 62.67260742 C0.37321752 57.10149937 0.94834867 50.47898157 1.12182617 44.25585938 C1.1877261 41.74137308 1.18341011 39.23393779 1.16992188 36.71875 C1.18597996 35.11974493 1.20602199 33.52077382 1.23046875 31.921875 C1.22975876 31.17186218 1.22904877 30.42184937 1.22831726 29.64910889 C1.30541992 27.53417969 1.30541992 27.53417969 2 24 C4.38525391 22.17358398 4.38525391 22.17358398 7 21 C8.78207018 19.15380736 10.5098686 17.25408551 12.1875 15.3125 C13.75078004 13.50547015 15.3459394 11.72432158 17 10 C17.66 10 18.32 10 19 10 C19 9.34 19 8.68 19 8 C17.906875 8.165 16.81375 8.33 15.6875 8.5 C12 9 12 9 9 9 C7.17578125 7.46875 7.17578125 7.46875 5.3125 5.5 C4.68988281 4.8503125 4.06726563 4.200625 3.42578125 3.53125 C2.95527344 3.0259375 2.48476562 2.520625 2 2 C1.236875 2.804375 0.47375 3.60875 -0.3125 4.4375 C-4.07569876 7.63621894 -7.67561267 7.52286807 -12.44921875 7.78125 C-15.77143568 8.06615681 -17.49557952 8.79021723 -20 11 C-21.31003961 12.82107673 -22.53940921 14.64890881 -23.69140625 16.57421875 C-24.33916016 17.27998047 -24.33916016 17.27998047 -25 18 C-26.32 18 -27.64 18 -29 18 C-26.7140466 22.26763313 -23.76416143 25.47663624 -20.3125 28.8125 C-19.80138672 29.31458984 -19.29027344 29.81667969 -18.76367188 30.33398438 C-17.51365638 31.56063509 -16.2574532 32.78097491 -15 34 C-13.85373678 33.02133662 -12.70800212 32.04205413 -11.5625 31.0625 C-10.60537109 30.24458984 -10.60537109 30.24458984 -9.62890625 29.41015625 C-8.73008851 28.63204305 -7.84063472 27.84063472 -7 27 C-6.92820036 25.48071962 -6.91607993 23.95832518 -6.9375 22.4375 C-6.94652344 21.61121094 -6.95554688 20.78492187 -6.96484375 19.93359375 C-6.97644531 19.29550781 -6.98804688 18.65742187 -7 18 C-9.83073436 17.49830585 -9.83073436 17.49830585 -13 18 C-15.42422186 20.88509913 -15.42422186 20.88509913 -17 24 C-17.66 23.67 -18.32 23.34 -19 23 C-19.375 20.3125 -19.375 20.3125 -19 17 C-16.87300158 14.56173352 -15.79276192 13.33832574 -13 12 C-9.375 11.875 -9.375 11.875 -6 13 C-2.81176075 16.27214028 -1.12505063 18.6994735 -0.6875 23.25 C-1.21860345 29.62324141 -5.30896965 33.56178602 -9.703125 37.93359375 C-10.60160156 38.83013672 -11.50007813 39.72667969 -12.42578125 40.65039062 C-13.82376953 42.03000977 -13.82376953 42.03000977 -15.25 43.4375 C-16.16652344 44.35337891 -17.08304688 45.26925781 -18.02734375 46.21289062 C-24.06343505 52.21023383 -30.11332241 58.16596426 -37 63.1875 C-39.80239936 67.1283741 -39.56043343 70.42371374 -39.56640625 75.16015625 C-38.87650829 78.61916186 -37.53351609 79.64972068 -35 82 C-35.14296509 80.85881714 -35.14296509 80.85881714 -35.28881836 79.69458008 C-35.5420007 72.47425533 -34.29482798 68.59031336 -29.50234985 63.30050659 C-26.2734831 60.00210683 -22.93745354 56.83526657 -19.5625 53.6875 C-18.18421558 52.35232242 -16.80853614 51.01445022 -15.43554688 49.67382812 C-5.42656924 40 -5.42656924 40 -3 40 C-2.04507305 46.68448865 -2.04507305 46.68448865 -4.5 50.06640625 C-6.59007658 52.15240065 -8.74691066 54.09145525 -11 56 C-12.95237008 57.69957315 -14.90274667 59.3997067 -16.8359375 61.12109375 C-18.42248025 62.49857942 -20.06127582 63.81648297 -21.7265625 65.09765625 C-25.89934736 68.61807616 -29.03393407 71.52186176 -29.84375 77.05859375 C-29.93354866 78.49553505 -29.98567975 79.93532676 -30 81.375 C-30.01224609 82.0652124 -30.02449219 82.7554248 -30.03710938 83.46655273 C-29.99228476 85.74865074 -29.99228476 85.74865074 -29 89 C-27.02 90.32 -25.04 91.64 -23 93 C-23 87.72 -23 82.44 -23 77 C-22.67 77 -22.34 77 -22 77 C-22 82.61 -22 88.22 -22 94 C-23.98 94.495 -23.98 94.495 -26 95 C-28.84459683 93.03538636 -30.67050956 91.44487661 -31.46142578 87.9765625 C-31.63784654 85.63114371 -31.63309649 83.35067224 -31.5625 81 C-31.57345703 80.2059375 -31.58441406 79.411875 -31.59570312 78.59375 C-31.5467496 74.6774683 -31.32599777 72.51692922 -29.19921875 69.14453125 C-27.25883722 67.25240077 -25.33232572 65.42133733 -23.25 63.6875 C-19.49314676 60.49347122 -16.06387124 57.07302817 -12.6640625 53.50390625 C-11 52 -11 52 -9 52 C-8.67 51.01 -8.34 50.02 -8 49 C-7.34 49 -6.68 49 -6 49 C-6 47.68 -6 46.36 -6 45 C-6.99 45.33 -7.98 45.66 -9 46 C-9.33 46.99 -9.66 47.98 -10 49 C-10.66 49 -11.32 49 -12 49 C-12.33 49.99 -12.66 50.98 -13 52 C-13.66 52 -14.32 52 -15 52 C-15.33 52.99 -15.66 53.98 -16 55 C-16.66 55 -17.32 55 -18 55 C-18.33 55.99 -18.66 56.98 -19 58 C-19.66 58 -20.32 58 -21 58 C-21.33 58.99 -21.66 59.98 -22 61 C-22.66 61 -23.32 61 -24 61 C-24.33 61.99 -24.66 62.98 -25 64 C-25.66 64 -26.32 64 -27 64 C-27.33 64.99 -27.66 65.98 -28 67 C-28.66 67 -29.32 67 -30 67 C-30 67.66 -30 68.32 -30 69 C-30.99 69.495 -30.99 69.495 -32 70 C-32.47001033 73.27555608 -32.47001033 73.27555608 -32.625 77.0625 C-32.69976562 78.35285156 -32.77453125 79.64320312 -32.8515625 80.97265625 C-32.90054688 81.97167969 -32.94953125 82.97070312 -33 84 C-36 84 -36 84 -38.625 81.5625 C-39.40875 80.716875 -40.1925 79.87125 -41 79 C-41.33 78.67 -41.66 78.34 -42 78 C-42.34375 75.77734375 -42.34375 75.77734375 -42.5 72.9375 C-42.5721875 72.01839844 -42.644375 71.09929687 -42.71875 70.15234375 C-41.60203851 65.2545928 -38.45513349 62.52046663 -35 59 C-34.26475098 58.23921143 -33.52950195 57.47842285 -32.77197266 56.69458008 C-30.38884263 54.25478019 -27.97987147 51.84335103 -25.5625 49.4375 C-24.75490234 48.62603516 -23.94730469 47.81457031 -23.11523438 46.97851562 C-18.76029589 42.63059557 -14.33314508 38.43398034 -9.65795898 34.43139648 C-5.39637099 30.83462731 -5.39637099 30.83462731 -3.765625 25.69140625 C-3.7516034 23.44444441 -3.82435704 21.23944771 -4 19 C-4.33 19 -4.66 19 -5 19 C-4.67 19.33 -4.34 19.66 -4 20 C-3.53403933 26.17397882 -3.53403933 26.17397882 -5.375 29.4375 C-7 31 -7 31 -9 31 C-9.33 31.99 -9.66 32.98 -10 34 C-10.66 34 -11.32 34 -12 34 C-12 34.66 -12 35.32 -12 36 C-13.485 36.495 -13.485 36.495 -15 37 C-17.6539649 34.40401115 -20.29670704 31.79688166 -22.9375 29.1875 C-23.69224609 28.44951172 -24.44699219 27.71152344 -25.22460938 26.95117188 C-25.94326172 26.23896484 -26.66191406 25.52675781 -27.40234375 24.79296875 C-28.06741943 24.1383667 -28.73249512 23.48376465 -29.41772461 22.80932617 C-31 21 -31 21 -32 18 C-29 16 -29 16 -25 16 C-24.34 14.02 -23.68 12.04 -23 10 C-22.34 10 -21.68 10 -21 10 C-21 9.34 -21 8.68 -21 8 C-17.10763555 5.54166456 -14.43661103 4.86944511 -9.9375 5.125 C-5.61917822 5.32190332 -5.61917822 5.32190332 -2.1875 2.4375 C-1.465625 1.633125 -0.74375 0.82875 0 0 Z M-15 16 C-12.36 16 -9.72 16 -7 16 C-7.33 15.34 -7.66 14.68 -8 14 C-11.95457848 13.65176193 -11.95457848 13.65176193 -15 16 Z M-16 16 C-16.33 17.32 -16.66 18.64 -17 20 C-16.34 18.68 -15.68 17.36 -15 16 C-15.33 16 -15.66 16 -16 16 Z " fill="#151515" transform="translate(73,18)"/>
<path d="M0 0 C3.32070047 1.05122766 4.50386597 2.47697176 6.703125 5.1484375 C8.71606007 7.55997358 10.59371345 9.79442356 12.94921875 11.87890625 C14.640625 13.8359375 14.640625 13.8359375 14.5559082 15.6171875 C13.25342308 18.77455874 11.05705718 20.90700785 8.6875 23.29296875 C8.19026428 23.80018967 7.69302856 24.30741058 7.1807251 24.83000183 C6.12885425 25.89703142 5.07290225 26.96005117 4.01318359 28.01928711 C2.39417264 29.64487545 0.80066509 31.29293296 -0.79296875 32.94335938 C-1.8188372 33.97802734 -2.84613471 35.01128077 -3.875 36.04296875 C-4.34915344 36.53867874 -4.82330688 37.03438873 -5.31182861 37.54512024 C-6.69628906 38.90161133 -6.69628906 38.90161133 -9.359375 40.8359375 C-12.08886719 40.7956543 -12.08886719 40.7956543 -14.359375 39.8359375 C-16.171875 37.2734375 -16.171875 37.2734375 -17.359375 34.8359375 C-16.699375 33.8459375 -16.039375 32.8559375 -15.359375 31.8359375 C-14.699375 31.8359375 -14.039375 31.8359375 -13.359375 31.8359375 C-13.029375 30.8459375 -12.699375 29.8559375 -12.359375 28.8359375 C-11.699375 28.8359375 -11.039375 28.8359375 -10.359375 28.8359375 C-10.029375 27.8459375 -9.699375 26.8559375 -9.359375 25.8359375 C-8.699375 25.8359375 -8.039375 25.8359375 -7.359375 25.8359375 C-7.359375 25.1759375 -7.359375 24.5159375 -7.359375 23.8359375 C-8.2875 24.6815625 -9.215625 25.5271875 -10.171875 26.3984375 C-11.75390625 27.83984375 -11.75390625 27.83984375 -13.359375 28.8359375 C-14.349375 28.5059375 -15.339375 28.1759375 -16.359375 27.8359375 C-15.56493482 21.16263999 -13.60441709 16.86989033 -8.671875 12.3359375 C-5.69839072 9.60324329 -5.69839072 9.60324329 -5.109375 5.5859375 C-5.233125 4.2246875 -5.233125 4.2246875 -5.359375 2.8359375 C-3.7517109 0.2129066 -3.08724917 -0.21467627 0 0 Z M2.640625 12.8359375 C-0.329375 15.8059375 -3.299375 18.7759375 -6.359375 21.8359375 C-3.29076869 22.16121358 -3.29076869 22.16121358 -1.31640625 20.0859375 C-0.25486328 18.9721875 -0.25486328 18.9721875 0.828125 17.8359375 C1.54355469 17.0934375 2.25898437 16.3509375 2.99609375 15.5859375 C3.53878906 15.0084375 4.08148438 14.4309375 4.640625 13.8359375 C3.980625 13.5059375 3.320625 13.1759375 2.640625 12.8359375 Z " fill="#F3F3F3" transform="translate(41.359375,41.1640625)"/>
<path d="M0 0 C2.5 0.375 2.5 0.375 4.3125 1.6875 C5.5 3.375 5.5 3.375 5.5 6.375 C6.09296875 6.47683594 6.6859375 6.57867187 7.296875 6.68359375 C9.86184111 7.48855652 10.92743483 8.49066902 12.75 10.4375 C13.27078125 10.98535156 13.7915625 11.53320312 14.328125 12.09765625 C14.71484375 12.51917969 15.1015625 12.94070312 15.5 13.375 C13.625 17.25 13.625 17.25 12.5 18.375 C13.11488281 18.49617188 13.72976562 18.61734375 14.36328125 18.7421875 C15.17152344 18.90976562 15.97976562 19.07734375 16.8125 19.25 C17.61300781 19.41242187 18.41351563 19.57484375 19.23828125 19.7421875 C21.5 20.375 21.5 20.375 24.5 22.375 C24.273125 23.1175 24.04625 23.86 23.8125 24.625 C23.18503789 27.42888789 23.18503789 27.42888789 25 29.5 C25.495 30.11875 25.99 30.7375 26.5 31.375 C26.17 32.365 25.84 33.355 25.5 34.375 C23.85 34.375 22.2 34.375 20.5 34.375 C20.5 35.035 20.5 35.695 20.5 36.375 C21.82 37.035 23.14 37.695 24.5 38.375 C17.57 38.375 10.64 38.375 3.5 38.375 C3.5 38.045 3.5 37.715 3.5 37.375 C9.44 36.88 9.44 36.88 15.5 36.375 C13.49454789 33.70106386 11.61780044 31.46924035 9 29.375 C6.37100457 27.27180365 4.59680365 24.99600457 2.5 22.375 C1.5925 21.67375 0.685 20.9725 -0.25 20.25 C-0.9925 19.63125 -1.735 19.0125 -2.5 18.375 C-2.5 17.385 -2.5 16.395 -2.5 15.375 C-3.49 15.705 -4.48 16.035 -5.5 16.375 C-12.04098361 16.6045082 -12.04098361 16.6045082 -14.5 15.375 C-14.5 14.385 -14.5 13.395 -14.5 12.375 C-12.8603279 11.00860658 -11.18889872 9.6800581 -9.5 8.375 C-8.13755204 6.73204805 -6.80135125 5.06675663 -5.5 3.375 C-3.62721313 1.01366004 -3.02155191 0.45323279 0 0 Z " fill="#101010" transform="translate(96.5,27.625)"/>
<path d="M0 0 C7.26 0 14.52 0 22 0 C20.83892055 4.6443178 19.68525288 5.23606034 16 8 C14.5216774 10.95664519 14.93967217 13.74229737 15 17 C15.99 17 16.98 17 18 17 C18 21.29 18 25.58 18 30 C17.67 30 17.34 30 17 30 C17 26.37 17 22.74 17 19 C14.525 20.485 14.525 20.485 12 22 C10.9264574 10.66816143 10.9264574 10.66816143 13.55859375 6.578125 C15.5 4.6875 15.5 4.6875 19 2 C13.72 2 8.44 2 3 2 C4.98 4.31 6.96 6.62 9 9 C8.01 9 7.02 9 6 9 C6 8.34 6 7.68 6 7 C5.34 7 4.68 7 4 7 C3.67 9.31 3.34 11.62 3 14 C-2.28 14 -7.56 14 -13 14 C-14.7578125 7.9453125 -14.7578125 7.9453125 -15 6 C-12.22957891 3.22957891 -10.23466195 3.60203894 -6.375 3.375 C-5.18648437 3.30023438 -3.99796875 3.22546875 -2.7734375 3.1484375 C-1.40058594 3.07496094 -1.40058594 3.07496094 0 3 C0 2.01 0 1.02 0 0 Z " fill="#242424" transform="translate(100,66)"/>
<path d="M0 0 C3.32070047 1.05122766 4.50386597 2.47697176 6.703125 5.1484375 C8.71606007 7.55997358 10.59371345 9.79442356 12.94921875 11.87890625 C14.640625 13.8359375 14.640625 13.8359375 14.5559082 15.6171875 C13.25342308 18.77455874 11.05705718 20.90700785 8.6875 23.29296875 C8.19026428 23.80018967 7.69302856 24.30741058 7.1807251 24.83000183 C6.12885425 25.89703142 5.07290225 26.96005117 4.01318359 28.01928711 C2.39417264 29.64487545 0.80066509 31.29293296 -0.79296875 32.94335938 C-1.8188372 33.97802734 -2.84613471 35.01128077 -3.875 36.04296875 C-4.34915344 36.53867874 -4.82330688 37.03438873 -5.31182861 37.54512024 C-6.69628906 38.90161133 -6.69628906 38.90161133 -9.359375 40.8359375 C-12.08886719 40.7956543 -12.08886719 40.7956543 -14.359375 39.8359375 C-16.171875 37.2734375 -16.171875 37.2734375 -17.359375 34.8359375 C-16.699375 33.8459375 -16.039375 32.8559375 -15.359375 31.8359375 C-14.699375 31.8359375 -14.039375 31.8359375 -13.359375 31.8359375 C-13.029375 30.8459375 -12.699375 29.8559375 -12.359375 28.8359375 C-11.699375 28.8359375 -11.039375 28.8359375 -10.359375 28.8359375 C-10.029375 27.8459375 -9.699375 26.8559375 -9.359375 25.8359375 C-8.699375 25.8359375 -8.039375 25.8359375 -7.359375 25.8359375 C-7.359375 25.1759375 -7.359375 24.5159375 -7.359375 23.8359375 C-8.2875 24.6815625 -9.215625 25.5271875 -10.171875 26.3984375 C-11.75390625 27.83984375 -11.75390625 27.83984375 -13.359375 28.8359375 C-14.349375 28.5059375 -15.339375 28.1759375 -16.359375 27.8359375 C-15.56493482 21.16263999 -13.60441709 16.86989033 -8.671875 12.3359375 C-5.69839072 9.60324329 -5.69839072 9.60324329 -5.109375 5.5859375 C-5.233125 4.2246875 -5.233125 4.2246875 -5.359375 2.8359375 C-3.7517109 0.2129066 -3.08724917 -0.21467627 0 0 Z M-2.359375 1.8359375 C-3.349375 3.3209375 -3.349375 3.3209375 -4.359375 4.8359375 C-3.369375 6.3209375 -3.369375 6.3209375 -2.359375 7.8359375 C-2.89046875 8.320625 -3.4215625 8.8053125 -3.96875 9.3046875 C-8.72121031 13.81432137 -11.96882622 17.70366019 -14.359375 23.8359375 C-14.029375 24.8259375 -13.699375 25.8159375 -13.359375 26.8359375 C-8.079375 21.5559375 -2.799375 16.2759375 2.640625 10.8359375 C3.630625 11.8259375 4.620625 12.8159375 5.640625 13.8359375 C-1.289375 20.7659375 -8.219375 27.6959375 -15.359375 34.8359375 C-14.369375 36.1559375 -13.379375 37.4759375 -12.359375 38.8359375 C-9.43141415 37.5050462 -7.26857229 36.02886358 -4.93359375 33.82421875 C-4.30130859 33.23060547 -3.66902344 32.63699219 -3.01757812 32.02539062 C-2.36724609 31.40599609 -1.71691406 30.78660156 -1.046875 30.1484375 C-0.0887793 29.24834961 -0.0887793 29.24834961 0.88867188 28.33007812 C5.21987176 24.24462008 9.45260491 20.06774327 13.640625 15.8359375 C10.50855118 12.09272733 7.33233533 8.42144402 3.953125 4.8984375 C3.39238281 4.31191406 2.83164062 3.72539063 2.25390625 3.12109375 C0.59331078 1.524399 0.59331078 1.524399 -2.359375 1.8359375 Z M2.640625 12.8359375 C-0.329375 15.8059375 -3.299375 18.7759375 -6.359375 21.8359375 C-3.29076869 22.16121358 -3.29076869 22.16121358 -1.31640625 20.0859375 C-0.25486328 18.9721875 -0.25486328 18.9721875 0.828125 17.8359375 C1.54355469 17.0934375 2.25898437 16.3509375 2.99609375 15.5859375 C3.53878906 15.0084375 4.08148438 14.4309375 4.640625 13.8359375 C3.980625 13.5059375 3.320625 13.1759375 2.640625 12.8359375 Z " fill="#121212" transform="translate(41.359375,41.1640625)"/>
<path d="M0 0 C3.79450934 0.39253545 5.51015791 2.24338912 8 5 C6.95125002 7.62187494 6.35068687 8.79371361 3.875 10.25 C3.25625 10.4975 2.6375 10.745 2 11 C2 11.66 2 12.32 2 13 C2.90363281 12.96519531 3.80726562 12.93039063 4.73828125 12.89453125 C5.91777344 12.86746094 7.09726563 12.84039062 8.3125 12.8125 C10.07013672 12.76029297 10.07013672 12.76029297 11.86328125 12.70703125 C15 13 15 13 16.91796875 14.51171875 C17.45357422 15.24841797 17.45357422 15.24841797 18 16 C17.01 16.99 16.02 17.98 15 19 C16.32 20.65 17.64 22.3 19 24 C17.02 24 15.04 24 13 24 C12.67 24.99 12.34 25.98 12 27 C5.73 20.73 -0.54 14.46 -7 8 C-1 1 -1 1 0 0 Z " fill="#F2F2F2" transform="translate(102,36)"/>
<path d="M0 0 C2.12493141 -0.02693575 4.24995912 -0.04636628 6.375 -0.0625 C7.55835937 -0.07410156 8.74171875 -0.08570313 9.9609375 -0.09765625 C13 0 13 0 15 1 C15.97224362 2.92154343 16.85618511 4.88841943 17.6875 6.875 C18.14511719 7.94492187 18.60273437 9.01484375 19.07421875 10.1171875 C20 13 20 13 19 16 C15.75728494 15.4409112 14.06942576 14.5867822 12 12 C12 11.34 12 10.68 12 10 C10.7315625 10.185625 10.7315625 10.185625 9.4375 10.375 C4.62045343 9.84950401 2.34573155 7.32593432 -1 4 C-0.67 2.68 -0.34 1.36 0 0 Z " fill="#191919" transform="translate(79,47)"/>
<path d="M0 0 C0.66 0 1.32 0 2 0 C4.3204773 10.95875045 4.3204773 10.95875045 1.16796875 15.83203125 C-2.03619381 19.03619381 -4.66551627 21.55517209 -9 23 C-9.4125 22.505 -9.825 22.01 -10.25 21.5 C-12.12202338 19.56613908 -12.12202338 19.56613908 -16 20 C-18.23515016 18.05437706 -20.22932551 16.14636238 -22.25 14 C-22.80429688 13.42765625 -23.35859375 12.8553125 -23.9296875 12.265625 C-25.29564122 10.85256943 -26.64905611 9.42741242 -28 8 C-27.67 7.01 -27.34 6.02 -27 5 C-25.6696875 6.1446875 -25.6696875 6.1446875 -24.3125 7.3125 C-22.42078191 8.89924485 -20.72464082 10.15533082 -18.5625 11.375 C-14.85617238 13.7253541 -12.01218186 16.83156663 -9 20 C-7.87411986 19.04270084 -6.7493285 18.08412105 -5.625 17.125 C-4.68527344 16.32449219 -4.68527344 16.32449219 -3.7265625 15.5078125 C-0.60877523 12.98515236 -0.60877523 12.98515236 0.1953125 9.1796875 C0.17210938 8.08914062 0.14890625 6.99859375 0.125 5.875 C0.10695313 4.77929688 0.08890625 3.68359375 0.0703125 2.5546875 C0.04710938 1.71164063 0.02390625 0.86859375 0 0 Z " fill="#1A1A1A" transform="translate(115,85)"/>
<path d="M0 0 C0.33 0 0.66 0 1 0 C1.48036378 3.36254643 1.77640426 5.91968215 -0.27734375 8.77734375 C-2.11566472 10.61566472 -4.01681112 12.31901133 -6 14 C-7.94240951 15.68609155 -9.88123595 17.37380869 -11.80078125 19.0859375 C-13.39948775 20.47735168 -15.05093143 21.8088714 -16.73046875 23.1015625 C-20.90228744 26.62024737 -24.03424691 29.52400064 -24.84375 35.05859375 C-24.93354866 36.49553505 -24.98567975 37.93532676 -25 39.375 C-25.01224609 40.0652124 -25.02449219 40.7554248 -25.03710938 41.46655273 C-24.99228476 43.74865074 -24.99228476 43.74865074 -24 47 C-21.03 48.98 -21.03 48.98 -18 51 C-18 45.72 -18 40.44 -18 35 C-17.67 35 -17.34 35 -17 35 C-17 40.61 -17 46.22 -17 52 C-18.98 52.495 -18.98 52.495 -21 53 C-23.84459683 51.03538636 -25.67050956 49.44487661 -26.46142578 45.9765625 C-26.63784654 43.63114371 -26.63309649 41.35067224 -26.5625 39 C-26.57345703 38.2059375 -26.58441406 37.411875 -26.59570312 36.59375 C-26.5467496 32.6774683 -26.32599777 30.51692922 -24.19921875 27.14453125 C-22.25883722 25.25240077 -20.33232572 23.42133733 -18.25 21.6875 C-14.49314676 18.49347122 -11.06387124 15.07302817 -7.6640625 11.50390625 C-6 10 -6 10 -4 10 C-3.67 9.01 -3.34 8.02 -3 7 C-2.34 7 -1.68 7 -1 7 C-0.67 4.69 -0.34 2.38 0 0 Z " fill="#0F0F0F" transform="translate(68,60)"/>
<path d="M0 0 C1.32 1.32 2.64 2.64 4 4 C-2.93 10.93 -9.86 17.86 -17 25 C-15.68 26.65 -14.36 28.3 -13 30 C-14.32 30 -15.64 30 -17 30 C-18.75 27.5 -18.75 27.5 -20 25 C-19.01 23.515 -19.01 23.515 -18 22 C-17.34 22 -16.68 22 -16 22 C-15.67 21.01 -15.34 20.02 -15 19 C-14.34 19 -13.68 19 -13 19 C-12.67 18.01 -12.34 17.02 -12 16 C-11.34 16 -10.68 16 -10 16 C-10 15.34 -10 14.68 -10 14 C-10.66 13.34 -11.32 12.68 -12 12 C-8.04 8.04 -4.08 4.08 0 0 Z M0 3 C-2.97 5.97 -5.94 8.94 -9 12 C-5.93139369 12.32527608 -5.93139369 12.32527608 -3.95703125 10.25 C-2.89548828 9.13625 -2.89548828 9.13625 -1.8125 8 C-1.09707031 7.2575 -0.38164063 6.515 0.35546875 5.75 C0.89816406 5.1725 1.44085938 4.595 2 4 C1.34 3.67 0.68 3.34 0 3 Z " fill="#171717" transform="translate(44,51)"/>
<path d="M0 0 C0.66 0.99 1.32 1.98 2 3 C5.28576388 3.40414686 5.28576388 3.40414686 9 3.25 C10.258125 3.23453125 11.51625 3.2190625 12.8125 3.203125 C15.89579531 3.21436312 15.89579531 3.21436312 18 2 C17.67 4.31 17.34 6.62 17 9 C11.72 9 6.44 9 1 9 C-0.66015625 2.84765625 -0.66015625 2.84765625 -1 1 C-0.67 0.67 -0.34 0.34 0 0 Z " fill="#0C0C0C" transform="translate(86,71)"/>
<path d="M0 0 C0.66 1.65 1.32 3.3 2 5 C-4.40717489 12.63408072 -4.40717489 12.63408072 -8.3125 13.53125 C-10.5 13.5 -10.5 13.5 -14 13 C-3.15384615 0 -3.15384615 0 0 0 Z " fill="#F3F3F3" transform="translate(98,29)"/>
<path d="M0 0 C0 2.64 0 5.28 0 8 C-0.33 8 -0.66 8 -1 8 C-1.33 6.35 -1.66 4.7 -2 3 C-2.99 4.485 -2.99 4.485 -4 6 C-4.66 6 -5.32 6 -6 6 C-6.33 6.99 -6.66 7.98 -7 9 C-7.66 9 -8.32 9 -9 9 C-9.33 9.99 -9.66 10.98 -10 12 C-10.66 12 -11.32 12 -12 12 C-12.33 12.99 -12.66 13.98 -13 15 C-13.66 15 -14.32 15 -15 15 C-15.33 15.99 -15.66 16.98 -16 18 C-16.66 18 -17.32 18 -18 18 C-18.33 18.99 -18.66 19.98 -19 21 C-19.66 21 -20.32 21 -21 21 C-21.33 21.99 -21.66 22.98 -22 24 C-22.66 24 -23.32 24 -24 24 C-24.33 24.99 -24.66 25.98 -25 27 C-25.99 26.67 -26.98 26.34 -28 26 C-24.34017795 22.2908542 -20.67392152 18.58823822 -17.00146484 14.89160156 C-15.75226298 13.63232287 -14.50485944 12.37125764 -13.25927734 11.10839844 C-11.47178925 9.29673588 -9.67799773 7.49153161 -7.8828125 5.6875 C-7.04521896 4.83442261 -7.04521896 4.83442261 -6.19070435 3.96411133 C-2.22774341 0 -2.22774341 0 0 0 Z " fill="#1B1B1B" transform="translate(70,58)"/>
<path d="M0 0 C3.66377743 0.57380172 5.32767225 1.97269658 7.890625 4.59765625 C8.59960938 5.31630859 9.30859375 6.03496094 10.0390625 6.77539062 C10.76867187 7.53013672 11.49828125 8.28488281 12.25 9.0625 C12.99507812 9.82111328 13.74015625 10.57972656 14.5078125 11.36132812 C16.34546694 13.23432207 18.17575724 15.11395611 20 17 C20.33 16.67 20.66 16.34 21 16 C22.66617115 15.95936168 24.33388095 15.957279 26 16 C25.01 16.33 24.02 16.66 23 17 C23 17.66 23 18.32 23 19 C24.32 19.66 25.64 20.32 27 21 C20.07 21 13.14 21 6 21 C6 20.67 6 20.34 6 20 C9.96 19.67 13.92 19.34 18 19 C15.99454789 16.32606386 14.11780044 14.09424035 11.5 12 C8.86197849 9.88958279 7.07357938 7.65677358 5 5 C3.35216394 3.31471312 1.68997323 1.64302953 0 0 Z " fill="#0B0B0B" transform="translate(94,45)"/>
<path d="M0 0 C3.96 0 7.92 0 12 0 C15.22265625 5.95703125 15.22265625 5.95703125 16 8 C15.67 8.99 15.34 9.98 15 11 C14.2265625 10.071875 14.2265625 10.071875 13.4375 9.125 C11.06540182 6.74260514 11.06540182 6.74260514 7.5 6.0625 C3.455599 4.83473541 2.28143482 3.46778092 0 0 Z " fill="#F3F3F3" transform="translate(80,49)"/>
<path d="M0 0 C0.33 0 0.66 0 1 0 C1.3289276 3.53597175 1.16925913 5.64609454 -0.375 8.875 C-3.84640923 11.68518842 -6.27434792 11.70135629 -10.6484375 11.5078125 C-13 11 -13 11 -15.625 8.5 C-16.305625 7.2625 -16.305625 7.2625 -17 6 C-15.91332031 5.97873047 -15.91332031 5.97873047 -14.8046875 5.95703125 C-8.06357539 5.62446972 -4.72758586 4.85199601 0 0 Z M-2 4 C-2.53625 4.474375 -3.0725 4.94875 -3.625 5.4375 C-6.42842836 7.28186076 -8.69620258 7.62456847 -12 8 C-12 8.33 -12 8.66 -12 9 C-6.63909407 9.53673893 -6.63909407 9.53673893 -2 7.5 C-1.67 7.005 -1.34 6.51 -1 6 C-1.33 5.34 -1.66 4.68 -2 4 Z " fill="#131313" transform="translate(109,82)"/>
<path d="M0 0 C0 0.99 0 1.98 0 3 C-0.33 3.33 -0.66 3.66 -1 4 C-0.38511719 4.12117188 0.22976562 4.24234375 0.86328125 4.3671875 C1.67152344 4.53476562 2.47976562 4.70234375 3.3125 4.875 C4.11300781 5.03742187 4.91351563 5.19984375 5.73828125 5.3671875 C8 6 8 6 11 8 C10.773125 8.7425 10.54625 9.485 10.3125 10.25 C9.68503789 13.05388789 9.68503789 13.05388789 11.5 15.125 C11.995 15.74375 12.49 16.3625 13 17 C12.67 17.99 12.34 18.98 12 20 C9.69 19.67 7.38 19.34 5 19 C5 18.67 5 18.34 5 18 C6.65 17.67 8.3 17.34 10 17 C8.68 15.35 7.36 13.7 6 12 C6.99 11.01 7.98 10.02 9 9 C6.16730334 7.58365167 3.52533562 7.6536995 0.375 7.4375 C-0.81351562 7.35371094 -2.00203125 7.26992188 -3.2265625 7.18359375 C-4.59941406 7.09271484 -4.59941406 7.09271484 -6 7 C-6 6.34 -6 5.68 -6 5 C-4.04072937 3.2856382 -2.04119788 1.61594832 0 0 Z " fill="#282828" transform="translate(110,42)"/>
<path d="M0 0 C0.33 0 0.66 0 1 0 C1.33 5.61 1.66 11.22 2 17 C6.62 12.38 11.24 7.76 16 3 C16.66 3.33 17.32 3.66 18 4 C17.67 4.66 17.34 5.32 17 6 C16.34 6 15.68 6 15 6 C14.67 6.99 14.34 7.98 14 9 C13.34 9 12.68 9 12 9 C11.67 9.99 11.34 10.98 11 12 C10.34 12 9.68 12 9 12 C8.67 12.99 8.34 13.98 8 15 C7.34 15 6.68 15 6 15 C5.67 15.99 5.34 16.98 5 18 C4.34 18 3.68 18 3 18 C3 18.66 3 19.32 3 20 C2.01 20 1.02 20 0 20 C0 13.4 0 6.8 0 0 Z " fill="#1A1A1A" transform="translate(85,103)"/>
<path d="M0 0 C0.66 0 1.32 0 2 0 C1.52797514 4.24822374 -0.96655518 6.19989709 -4 9 C-4.66 8.67 -5.32 8.34 -6 8 C-9.60349589 7.8012778 -13.20516258 7.68140398 -16.8125 7.57421875 C-20 7 -20 7 -21.4375 4.95703125 C-21.623125 4.31121094 -21.80875 3.66539063 -22 3 C-21.34 2.67 -20.68 2.34 -20 2 C-20 2.99 -20 3.98 -20 5 C-14.72 5 -9.44 5 -4 5 C-3.67 4.34 -3.34 3.68 -3 3 C-2.34 3 -1.68 3 -1 3 C-0.67 2.01 -0.34 1.02 0 0 Z " fill="#090909" transform="translate(107,75)"/>
<path d="M0 0 C0.33 0 0.66 0 1 0 C1 3.3 1 6.6 1 10 C0.67 10 0.34 10 0 10 C-0.19412181 8.52168779 -0.38012131 7.04230684 -0.5625 5.5625 C-0.66691406 4.73878906 -0.77132812 3.91507812 -0.87890625 3.06640625 C-0.91886719 2.38449219 -0.95882812 1.70257813 -1 1 C-0.67 0.67 -0.34 0.34 0 0 Z M-3 3 C-3 6 -3 6 -4.2421875 7.60546875 C-4.78101563 8.12753906 -5.31984375 8.64960937 -5.875 9.1875 C-6.40867187 9.71730469 -6.94234375 10.24710937 -7.4921875 10.79296875 C-9 12 -9 12 -11 12 C-11 17.28 -11 22.56 -11 28 C-11.33 28 -11.66 28 -12 28 C-13.38026906 13.0044843 -13.38026906 13.0044843 -9.99609375 8.08984375 C-7.75002407 6.15309196 -5.5574407 4.4969147 -3 3 Z " fill="#252525" transform="translate(61,83)"/>
<path d="M0 0 C4.95 0 9.9 0 15 0 C15.33 0.99 15.66 1.98 16 3 C10.72 3 5.44 3 0 3 C0 2.01 0 1.02 0 0 Z " fill="#D4D4D4" transform="translate(87,77)"/>
<path d="M0 0 C0.66 0 1.32 0 2 0 C0.52278578 3.45201639 -1.43794001 5.64961936 -4.125 8.25 C-4.84945313 8.95640625 -5.57390625 9.6628125 -6.3203125 10.390625 C-6.87460937 10.92171875 -7.42890625 11.4528125 -8 12 C-6.68 13.65 -5.36 15.3 -4 17 C-5.32 17 -6.64 17 -8 17 C-9.75 14.5 -9.75 14.5 -11 12 C-10.34 11.01 -9.68 10.02 -9 9 C-8.34 9 -7.68 9 -7 9 C-6.67 8.01 -6.34 7.02 -6 6 C-5.34 6 -4.68 6 -4 6 C-3.67 5.01 -3.34 4.02 -3 3 C-2.34 3 -1.68 3 -1 3 C-0.67 2.01 -0.34 1.02 0 0 Z " fill="#212121" transform="translate(35,64)"/>
<path d="M0 0 C5.28 0 10.56 0 16 0 C15.67 0.99 15.34 1.98 15 3 C10.38 3 5.76 3 1 3 C0.67 2.01 0.34 1.02 0 0 Z " fill="#D2D1D1" transform="translate(87,72)"/>
<path d="M0 0 C0.99 0.33 1.98 0.66 3 1 C3 3.31 3 5.62 3 8 C3.99 8 4.98 8 6 8 C6 12.29 6 16.58 6 21 C5.67 21 5.34 21 5 21 C5 17.37 5 13.74 5 10 C2.525 11.485 2.525 11.485 0 13 C0 8.71 0 4.42 0 0 Z " fill="#0A0A0A" transform="translate(112,75)"/>
<path d="M0 0 C2.12493141 -0.02693575 4.24995912 -0.04636628 6.375 -0.0625 C7.55835937 -0.07410156 8.74171875 -0.08570313 9.9609375 -0.09765625 C13 0 13 0 15 1 C15.8515625 3.06640625 15.8515625 3.06640625 16.625 5.5625 C17.01558594 6.80193359 17.01558594 6.80193359 17.4140625 8.06640625 C17.60742188 8.70449219 17.80078125 9.34257813 18 10 C17.34 10 16.68 10 16 10 C15.01 7.69 14.02 5.38 13 3 C8.71 3 4.42 3 0 3 C0 2.01 0 1.02 0 0 Z " fill="#0F0F0F" transform="translate(79,47)"/>
<path d="M0 0 C3.40245228 1.2961723 5.21739472 3.31723983 7.625 6 C7.295 6.99 6.965 7.98 6.625 9 C6.23828125 8.55527344 5.8515625 8.11054687 5.453125 7.65234375 C4.93234375 7.08644531 4.4115625 6.52054688 3.875 5.9375 C3.10929687 5.08478516 3.10929687 5.08478516 2.328125 4.21484375 C0.66812742 2.73501743 0.66812742 2.73501743 -1.578125 3.31640625 C-2.17109375 3.54199219 -2.7640625 3.76757812 -3.375 4 C-2.715 5.32 -2.055 6.64 -1.375 8 C-2.365 8.66 -3.355 9.32 -4.375 10 C-5.70578101 3.58805513 -5.70578101 3.58805513 -4.25 1 C-2.375 0 -2.375 0 0 0 Z " fill="#121212" transform="translate(41.375,41)"/>
<path d="M0 0 C0.66 0 1.32 0 2 0 C2.93722603 4.42616963 3.47473819 8.48493683 3 13 C0.56235601 16.74316044 -2.32399972 19.47315789 -6 22 C-6.66 22 -7.32 22 -8 22 C-6.82099245 18.93458036 -5.37291426 17.49126184 -2.875 15.5 C-0.49927245 13.274197 -0.03047148 12.23828695 0.390625 8.9453125 C0.37649425 5.94252825 0.26133516 2.99083577 0 0 Z " fill="#363636" transform="translate(115,85)"/>
<path d="M0 0 C6.38453501 0.36833856 6.38453501 0.36833856 9.375 3.4375 C12.01709257 7.60387675 12.33865674 10.00481307 12 15 C10.5 17.9375 10.5 17.9375 9 20 C8.67 19.01 8.34 18.02 8 17 C8.33 16.67 8.66 16.34 9 16 C9.52818417 11.73123288 9.80815993 8.16734212 7.3125 4.5625 C4.9388133 2.95865764 2.71382745 1.90460915 0 1 C0 0.67 0 0.34 0 0 Z " fill="#1E1E1E" transform="translate(60,30)"/>
<path d="M0 0 C0.33 0 0.66 0 1 0 C1.36921071 3.07675596 1.51346499 5.93446148 1 9 C-0.30078125 10.51171875 -0.30078125 10.51171875 -1.9375 11.8125 C-4.42942504 13.87053692 -4.95670997 14.78845059 -5.62109375 18.03515625 C-5.84888914 21.03154176 -5.9902764 23.9954091 -6 27 C-6.33 27 -6.66 27 -7 27 C-7.9298291 14.43008804 -7.9298291 14.43008804 -5.6640625 10.9453125 C-4.1266762 9.61002393 -2.5643355 8.30361292 -1 7 C-0.58109782 3.78938212 -0.58109782 3.78938212 -1 1 C-0.67 0.67 -0.34 0.34 0 0 Z " fill="#111111" transform="translate(60,85)"/>
<path d="M0 0 C0.33 0 0.66 0 1 0 C1 5.61 1 11.22 1 17 C-0.32 17.33 -1.64 17.66 -3 18 C-4.65 16.02 -6.3 14.04 -8 12 C-5.0280615 13.12451727 -2.66559313 14.22293791 0 16 C0 10.72 0 5.44 0 0 Z " fill="#141414" transform="translate(50,95)"/>
<path d="M0 0 C0.33 0.99 0.66 1.98 1 3 C-0.11878383 4.17262904 -1.24523051 5.33795138 -2.375 6.5 C-3.00148438 7.1496875 -3.62796875 7.799375 -4.2734375 8.46875 C-6 10 -6 10 -8 10 C-6.50104329 6.18447383 -4.2013144 4.46254954 -1 2 C-0.67 1.34 -0.34 0.68 0 0 Z " fill="#262626" transform="translate(93,25)"/>
<path d="M0 0 C0.99 0.33 1.98 0.66 3 1 C2.01 1.33 1.02 1.66 0 2 C-0.33 2.99 -0.66 3.98 -1 5 C-1.66 5 -2.32 5 -3 5 C-3.33 5.99 -3.66 6.98 -4 8 C-4.99 7.67 -5.98 7.34 -7 7 C-4.69 4.69 -2.38 2.38 0 0 Z " fill="#1A1A1A" transform="translate(49,77)"/>
<path d="M0 0 C0.66 0.99 1.32 1.98 2 3 C2.99 2.01 3.98 1.02 5 0 C5.99 0.33 6.98 0.66 8 1 C3.60546875 5.00390625 3.60546875 5.00390625 2 6 C1.01 5.67 0.02 5.34 -1 5 C-0.67 3.35 -0.34 1.7 0 0 Z " fill="#0B0B0B" transform="translate(26,64)"/>
<path d="M0 0 C4.31392226 0.4793247 6.16569547 1.7457985 9 5 C8.67 5.99 8.34 6.98 8 8 C6.66372225 6.85760183 5.33104612 5.71098945 4 4.5625 C3.2575 3.92441406 2.515 3.28632812 1.75 2.62890625 C1.1725 2.09136719 0.595 1.55382813 0 1 C0 0.67 0 0.34 0 0 Z " fill="#252525" transform="translate(40,42)"/>
<path d="M0 0 C0 2.64 0 5.28 0 8 C-0.33 8 -0.66 8 -1 8 C-1.33 6.35 -1.66 4.7 -2 3 C-2.99 4.485 -2.99 4.485 -4 6 C-4.99 5.67 -5.98 5.34 -7 5 C-2.25 0 -2.25 0 0 0 Z " fill="#404040" transform="translate(70,58)"/>
<path d="M0 0 C3.57104439 1.87949705 5.54744301 3.17053157 7 7 C4.13302508 5.71480435 2.02392288 4.42870746 0 2 C0 1.34 0 0.68 0 0 Z " fill="#272727" transform="translate(78,49)"/>
</svg>
